<?xml version="1.0" encoding="UTF-8"?>
<svg id="Layer_1" data-name="Layer 1" xmlns="http://www.w3.org/2000/svg" viewBox="0 0 73 73">
  <defs>
    <style>
      .cls-1 {
        fill: #f0f;
      }

      .cls-1, .cls-2, .cls-3 {
        stroke-width: 0px;
      }

      .cls-2 {
        fill: #f7931e;
      }

      .cls-3 {
        fill: #fbb03b;
      }
    </style>
  </defs>
  <circle class="cls-2" cx="36.5" cy="36.5" r="36.5"/>
  <path class="cls-3" d="M36.5,6c19.15,0,34.84,14.75,36.37,33.5.08-.99.13-1.99.13-3C73,16.34,56.66,0,36.5,0S0,16.34,0,36.5c0,1.01.05,2.01.13,3C1.66,20.75,17.35,6,36.5,6Z"/>
  <path class="cls-1" d="M16,57.65v1.59c0,1.58,1.33,2.84,2.9,2.76l15.73-.81c.97-.05,1.84-.61,2.29-1.48l21.68-42.16c.18-.35.04-.79-.32-.96l-.95-.47c-.52-.26-1.15-.06-1.43.46l-20.4,38.4c-.34.64-1.06.98-1.77.84l-14.89-.86c-1.55-.09-2.85,1.14-2.85,2.69Z"/>
</svg>