<?xml version="1.0" encoding="UTF-8"?><svg id="Layer_1" xmlns="http://www.w3.org/2000/svg" xmlns:xlink="http://www.w3.org/1999/xlink" viewBox="0 0 106 106"><defs><style>.cls-1{fill:url(#linear-gradient);stroke:#f7931e;}.cls-1,.cls-2{stroke-miterlimit:10;}.cls-3{fill:#ec7c23;}.cls-3,.cls-4{stroke-width:0px;}.cls-4{fill:url(#linear-gradient-3);opacity:.96;}.cls-2{fill:url(#linear-gradient-2);stroke:#f77f1e;stroke-width:.25px;}</style><linearGradient id="linear-gradient" x1=".5" y1="53" x2="105.5" y2="53" gradientUnits="userSpaceOnUse"><stop offset="0" stop-color="#f79d1e"/><stop offset="1" stop-color="#fbb33b"/></linearGradient><linearGradient id="linear-gradient-2" x1="52.5" y1="94.5" x2="52.5" y2="10.5" gradientUnits="userSpaceOnUse"><stop offset="0" stop-color="#f7931e"/><stop offset="1" stop-color="#fbb03b"/></linearGradient><linearGradient id="linear-gradient-3" x1="52.5" y1="10" x2="52.5" y2="61.11" gradientUnits="userSpaceOnUse"><stop offset="0" stop-color="#f7931e"/><stop offset="1" stop-color="#f7931e"/></linearGradient></defs><circle class="cls-1" cx="53" cy="53" r="52.5"/><circle class="cls-2" cx="52.5" cy="52.5" r="42"/><path class="cls-4" d="M51.5,19c23.2,0,42,18.8,42,42,0,.04,0,.07,0,.11.65-2.94,1-5.98,1-9.11,0-23.2-18.8-42-42-42S10.56,28.74,10.5,51.89c4.16-18.81,20.93-32.89,41-32.89Z"/><polygon class="cls-3" points="38.11 78.41 26.15 78.41 46.13 37.46 51.32 48.53 38.11 78.41"/><polygon class="cls-3" points="57.26 36.46 52.07 47.45 46.89 36.46 52.07 25.66 57.26 36.46"/><polygon class="cls-3" points="66.04 78.3 78 78.3 58.01 37.35 52.82 48.42 66.04 78.3"/></svg>