{
  "accessors": [
    {
      "bufferView": 0,
      "componentType": 5125,
      "count": 8784,
      "type": "SCALAR"
    },
    {
      "bufferView": 1,
      "componentType": 5126,
      "count": 1751,
      "max": [
        0.025821928600732402,
        0.02570021929559199,
        0.00924522021805723
      ],
      "min": [
        -0.025821928600732402,
        -0.025700219295591964,
        -0.00924522021805723
      ],
      "type": "VEC3"
    },
    {
      "bufferView": 2,
      "componentType": 5126,
      "count": 1751,
      "max": [
        0.9999983527940097,
        0.9999950388938947,
        1.0
      ],
      "min": [
        -0.9999999999063318,
        -0.9999749641103914,
        -1.0
      ],
      "type": "VEC3"
    },
    {
      "bufferView": 3,
      "componentType": 5126,
      "count": 1751,
      "max": [
        1.0,
        0.7611254449153416
      ],
      "min": [
        0.0,
        0.0
      ],
      "type": "VEC2"
    }
  ],
  "asset": {
    "generator": "Adobe Illustrator",
    "version": "2.0"
  },
  "bufferViews": [
    {
      "buffer": 0,
      "byteLength": 35136,
      "target": 34963
    },
    {
      "buffer": 0,
      "byteLength": 21012,
      "byteOffset": 35136,
      "target": 34962
    },
    {
      "buffer": 0,
      "byteLength": 21012,
      "byteOffset": 56148,
      "target": 34962
    },
    {
      "buffer": 0,
      "byteLength": 14008,
      "byteOffset": 77160,
      "target": 34962
    }
  ],
  "buffers": [
    {
      "byteLength": 91168,
      "uri": "data:application/octet-stream;base64,"
    }
  ],
  "materials": [
    {
      "doubleSided": true,
      "pbrMetallicRoughness": {
        "baseColorFactor": [
          0.0,
          0.0,
          0.0,
          1.0
        ],
        "metallicFactor": 0.0,
        "roughnessFactor": 0.4000000059604645
      }
    }
  ],
  "meshes": [
    {
      "primitives": [
        {
          "attributes": {
            "NORMAL": 2,
            "POSITION": 1,
            "TEXCOORD_0": 3
          },
          "indices": 0,
          "material": 0,
          "mode": 4
        }
      ]
    }
  ],
  "nodes": [
    {
      "mesh": 0
    }
  ],
  "scenes": [
    {
      "nodes": [
        0
      ]
    }
  ]
}
