{
    "asset": {
        "copyright": "2024 (c) Adobe Inc.",
        "generator": "Adobe Substance 3D Stager - b368b4ea89877ae9d75d646d6e9ba341712ce6ad",
        "version": "2.0"
    },
    "accessors": [
        {
            "bufferView": 0,
            "componentType": 5126,
            "count": 1778,
            "type": "VEC3",
            "max": [
                0.025821927934885026,
                0.025700218975543977,
                0.009245220571756363
            ],
            "min": [
                -0.025821927934885026,
                -0.025700218975543977,
                -0.009245220571756363
            ]
        },
        {
            "bufferView": 1,
            "componentType": 5126,
            "count": 1778,
            "type": "VEC3"
        },
        {
            "bufferView": 2,
            "componentType": 5126,
            "count": 1778,
            "type": "VEC2"
        },
        {
            "bufferView": 3,
            "componentType": 5125,
            "count": 8754,
            "type": "SCALAR",
            "max": [
                1777.0
            ],
            "min": [
                0.0
            ]
        }
    ],
    "bufferViews": [
        {
            "buffer": 0,
            "byteOffset": 0,
            "byteLength": 21336,
            "target": 34962
        },
        {
            "buffer": 0,
            "byteOffset": 21336,
            "byteLength": 21336,
            "target": 34962
        },
        {
            "buffer": 0,
            "byteOffset": 42672,
            "byteLength": 14224,
            "target": 34962
        },
        {
            "buffer": 0,
            "byteOffset": 56896,
            "byteLength": 35016,
            "target": 34963
        }
    ],
    "buffers": [
        {
            "byteLength": 91912,
            "uri": "stick-2_binary.bin"
        }
    ],
    "materials": [
        {
            "pbrMetallicRoughness": {
                "baseColorFactor": [
                    0.036889445036649707,
                    0.23455065488815309,
                    0.5332764983177185,
                    1.0
                ],
                "roughnessFactor": 0.14901961386203767
            },
            "name": "blue_steel_material2",
            "doubleSided": true,
            "extensions": {
                "KHR_materials_ior": {
                    "ior": 1.600000023841858
                }
            }
        }
    ],
    "meshes": [
        {
            "name": "unnamed_n3d",
            "primitives": [
                {
                    "attributes": {
                        "POSITION": 0,
                        "NORMAL": 1,
                        "TEXCOORD_0": 2
                    },
                    "indices": 3,
                    "material": 0
                }
            ]
        }
    ],
    "nodes": [
        {
            "name": "working_cam_n3d"
        },
        {
            "translation": [
                -0.006407012697309256,
                0.025700218975543977,
                0.0040783691219985489
            ],
            "mesh": 0,
            "name": "unnamed_n3d"
        }
    ],
    "scenes": [
        {
            "nodes": [
                1
            ],
            "name": "scene"
        }
    ],
    "scene": 0,
    "extensionsUsed": [
        "KHR_materials_ior"
    ]
}